<svg xmlns="http://www.w3.org/2000/svg" viewBox="0 0 1200 720" role="img" aria-label="Agile cover">
  <defs>
    <linearGradient id="bg" x1="0" y1="0" x2="1" y2="1">
      <stop offset="0%" stop-color="#050510"/>
      <stop offset="50%" stop-color="#091737"/>
      <stop offset="100%" stop-color="#02030a"/>
    </linearGradient>
    <linearGradient id="cyan" x1="0" y1="0" x2="1" y2="1">
      <stop offset="0%" stop-color="#18edff"/>
      <stop offset="100%" stop-color="#2c78ff"/>
    </linearGradient>
    <filter id="glow" x="-70%" y="-70%" width="240%" height="240%">
      <feGaussianBlur stdDeviation="10" result="blur"/>
      <feMerge>
        <feMergeNode in="blur"/>
        <feMergeNode in="SourceGraphic"/>
      </feMerge>
    </filter>
    <filter id="soft" x="-70%" y="-70%" width="240%" height="240%">
      <feGaussianBlur stdDeviation="28"/>
    </filter>
  </defs>

  <rect width="1200" height="720" fill="url(#bg)"/>
  <circle cx="190" cy="210" r="170" fill="#e31fff" opacity="0.10" filter="url(#soft)"/>
  <circle cx="960" cy="200" r="180" fill="#18edff" opacity="0.09" filter="url(#soft)"/>
  <circle cx="610" cy="420" r="320" fill="#2c78ff" opacity="0.08" filter="url(#soft)"/>

  <g filter="url(#glow)" fill="none" stroke="url(#cyan)" stroke-linecap="round" stroke-linejoin="round">
    <circle cx="600" cy="344" r="104" stroke-width="10" stroke-dasharray="40 24"/>
    <path d="M600 214v-34" stroke-width="12"/>
    <path d="M600 508v34" stroke-width="12"/>
    <path d="M462 344h-34" stroke-width="12"/>
    <path d="M772 344h34" stroke-width="12"/>
    <path d="M506 250l-24-24" stroke-width="12"/>
    <path d="M694 438l24 24" stroke-width="12"/>
    <path d="M694 250l24-24" stroke-width="12"/>
    <path d="M506 438l-24 24" stroke-width="12"/>

    <circle cx="600" cy="344" r="42" stroke-width="18"/>
    <path d="M538 434c0-42 28-62 62-62s62 20 62 62v48H538z" stroke-width="16"/>

    <circle cx="212" cy="244" r="34" stroke-width="10"/>
    <path d="M174 292c10-24 28-36 38-36s28 12 38 36" stroke-width="10"/>
    <circle cx="174" cy="240" r="8" stroke-width="8"/>
    <circle cx="250" cy="240" r="8" stroke-width="8"/>
    <circle cx="212" cy="532" r="34" stroke-width="10"/>
    <path d="M174 580c10-24 28-36 38-36s28 12 38 36" stroke-width="10"/>

    <rect x="858" y="164" width="148" height="148" rx="24" stroke-width="3"/>
    <path d="M892 204h80" stroke-width="10"/>
    <path d="M892 238h106" stroke-width="10"/>
    <path d="M892 272h58" stroke-width="10"/>

    <rect x="84" y="132" width="188" height="260" rx="22" stroke-width="3"/>
    <path d="M118 184h120" stroke-width="9"/>
    <path d="M118 220h86" stroke-width="9"/>
    <path d="M118 256h100" stroke-width="9"/>
    <path d="M118 292h72" stroke-width="9"/>
    <path d="M118 328h94" stroke-width="9"/>

    <rect x="860" y="470" width="192" height="112" rx="22" stroke-width="3"/>
    <path d="M900 514h34" stroke-width="10"/>
    <path d="M950 514h34" stroke-width="10"/>
    <path d="M1000 514h34" stroke-width="10"/>
    <path d="M900 548h134" stroke-width="10"/>
  </g>

  <g filter="url(#soft)">
    <path d="M350 526c114-114 248-138 388-100 100 28 184 84 286 162" fill="none" stroke="#18edff" stroke-width="12" stroke-linecap="round"/>
    <path d="M392 566c102-90 217-110 344-80 89 21 157 58 246 126" fill="none" stroke="#e31fff" stroke-width="10" stroke-linecap="round"/>
  </g>

  <text x="600" y="610" text-anchor="middle" fill="#f7f7fb" font-family="Outfit, system-ui, sans-serif" font-size="104" font-weight="600" letter-spacing="2">Agile</text>
</svg>
