<svg xmlns="http://www.w3.org/2000/svg" viewBox="0 0 1200 720" role="img" aria-label="Agile cover">
  <defs>
    <linearGradient id="agBg" x1="0" y1="0" x2="1" y2="1">
      <stop offset="0%" stop-color="#071018"/>
      <stop offset="48%" stop-color="#111827"/>
      <stop offset="100%" stop-color="#03050a"/>
    </linearGradient>
    <linearGradient id="agBlue" x1="0" y1="0" x2="1" y2="1">
      <stop offset="0%" stop-color="#27d5ff"/>
      <stop offset="100%" stop-color="#3475ff"/>
    </linearGradient>
    <filter id="agBlur" x="-60%" y="-60%" width="220%" height="220%">
      <feGaussianBlur stdDeviation="26"/>
    </filter>
    <filter id="agSoft" x="-30%" y="-30%" width="160%" height="160%">
      <feGaussianBlur stdDeviation="14"/>
    </filter>
  </defs>

  <rect width="1200" height="720" fill="url(#agBg)"/>
  <circle cx="310" cy="210" r="190" fill="#23d8ff" opacity="0.08" filter="url(#agBlur)"/>
  <circle cx="830" cy="265" r="240" fill="#3272ff" opacity="0.10" filter="url(#agBlur)"/>
  <circle cx="630" cy="515" r="230" fill="#9c2dff" opacity="0.08" filter="url(#agSoft)"/>

  <g filter="url(#agSoft)">
    <path d="M250 520C350 365 470 300 600 270c142-33 278-8 395 57" fill="none" stroke="#1fdaff" stroke-width="12" stroke-linecap="round"/>
    <path d="M285 560c101-118 214-174 338-202 132-29 259-7 390 64" fill="none" stroke="#3959ff" stroke-width="8" stroke-linecap="round"/>
  </g>

  <g transform="translate(210 170)">
    <rect x="0" y="0" width="140" height="280" rx="22" fill="#0d1521" stroke="url(#agBlue)" stroke-width="4"/>
    <rect x="175" y="-70" width="140" height="350" rx="22" fill="#0d1521" stroke="url(#agBlue)" stroke-width="4"/>
    <rect x="350" y="-160" width="140" height="440" rx="22" fill="#0d1521" stroke="url(#agBlue)" stroke-width="4"/>
    <rect x="525" y="-40" width="140" height="320" rx="22" fill="#0d1521" stroke="url(#agBlue)" stroke-width="4"/>
    <rect x="700" y="-120" width="140" height="400" rx="22" fill="#0d1521" stroke="url(#agBlue)" stroke-width="4"/>
  </g>

  <g transform="translate(792 160)">
    <g opacity="0.95">
      <rect x="0" y="0" width="210" height="210" rx="30" fill="#0f1320" stroke="#2b5dff" stroke-width="2"/>
      <g transform="translate(34 36)">
        <circle cx="18" cy="18" r="12" fill="#ffb11f"/>
        <circle cx="64" cy="18" r="12" fill="#ff7b1f"/>
        <circle cx="110" cy="18" r="12" fill="#ffcf3f"/>
        <circle cx="156" cy="18" r="12" fill="#6ac8ff"/>
        <circle cx="18" cy="64" r="12" fill="#ff7b1f"/>
        <circle cx="64" cy="64" r="12" fill="#2ed0ff"/>
        <circle cx="110" cy="64" r="12" fill="#ffcf3f"/>
        <circle cx="156" cy="64" r="12" fill="#ff7b1f"/>
        <circle cx="18" cy="110" r="12" fill="#2ed0ff"/>
        <circle cx="64" cy="110" r="12" fill="#ffcf3f"/>
        <circle cx="110" cy="110" r="12" fill="#6ac8ff"/>
        <circle cx="156" cy="110" r="12" fill="#ffcf3f"/>
      </g>
    </g>
  </g>

  <text x="600" y="612" text-anchor="middle" fill="#f7f7fb" font-family="Outfit, sans-serif" font-size="102" font-weight="500" letter-spacing="3">Agile</text>
  <text x="600" y="662" text-anchor="middle" fill="#b7cffc" font-family="DM Mono, monospace" font-size="28" letter-spacing="7">SCRUM  STORIES  SPRINTS</text>
</svg>
