<svg xmlns="http://www.w3.org/2000/svg" viewBox="0 0 1200 720" role="img" aria-label="Business Analysis illustration">
  <rect width="1200" height="720" fill="#ffffff"/>
  <g fill="none" stroke="#222222" stroke-linecap="round" stroke-linejoin="round">
    <g transform="translate(155 120)" stroke="#2f8b57" stroke-width="6">
      <path d="M78 10c-28 0-50 22-50 50 0 19 10 36 25 45v18h50v-18c15-9 25-26 25-45 0-28-22-50-50-50z"/>
      <path d="M63 122h30"/>
      <path d="M70 135h16"/>
      <path d="M28 40l-18-12"/>
      <path d="M130 44l18-12"/>
      <path d="M20 84l-20 4"/>
      <path d="M136 84l20 4"/>
      <path d="M40 120l-14 16"/>
      <path d="M116 120l14 16"/>
      <path d="M78 34v8"/>
      <path d="M46 60h-8"/>
      <path d="M118 60h8"/>
    </g>

    <g transform="translate(468 86)" stroke="#2f8b57" stroke-width="5">
      <rect x="0" y="10" width="72" height="44" rx="3"/>
      <rect x="144" y="10" width="72" height="44" rx="3"/>
      <rect x="0" y="154" width="72" height="44" rx="3"/>
      <rect x="144" y="154" width="72" height="44" rx="3"/>
      <circle cx="108" cy="82" r="18"/>
      <path d="M36 32h108"/>
      <path d="M36 176h108"/>
      <path d="M72 54l18 18"/>
      <path d="M180 54l-18 18"/>
      <path d="M72 176l18-18"/>
      <path d="M180 176l-18-18"/>
      <path d="M108 54v56"/>
      <path d="M108 110v26"/>
      <path d="M96 82h24"/>
    </g>

    <g transform="translate(826 90)" stroke="#2f8b57" stroke-width="6">
      <rect x="0" y="0" width="120" height="150" rx="16"/>
      <path d="M28 34h56"/>
      <path d="M28 58h56"/>
      <path d="M28 82h56"/>
      <path d="M28 106h38"/>
      <path d="M86 8l30-4"/>
      <path d="M90 20l34-4"/>
      <path d="M74 20l46 112"/>
      <path d="M70 28l8-8 16 16-8 8z"/>
    </g>

    <g transform="translate(320 290)" stroke="#222222" stroke-width="5">
      <circle cx="190" cy="112" r="24"/>
      <circle cx="120" cy="120" r="22"/>
      <circle cx="260" cy="120" r="22"/>
      <circle cx="60" cy="118" r="18"/>
      <circle cx="330" cy="118" r="18"/>
      <path d="M120 142v54"/>
      <path d="M190 136v60"/>
      <path d="M260 142v54"/>
      <path d="M60 136v52"/>
      <path d="M330 136v52"/>
      <path d="M74 176h64"/>
      <path d="M146 186h88"/>
      <path d="M238 176h64"/>
      <path d="M40 186l-24 46"/>
      <path d="M350 186l24 46"/>
      <path d="M88 210l-10 56"/>
      <path d="M292 210l10 56"/>
      <path d="M196 196c18 0 34 16 34 34v36"/>
      <path d="M154 196c-18 0-34 16-34 34v36"/>
      <path d="M126 260h132"/>
      <path d="M132 260l-12 28"/>
      <path d="M252 260l12 28"/>
    </g>
  </g>

  <text x="600" y="612" text-anchor="middle" fill="#333333"
        font-family="Arial, Helvetica, sans-serif" font-size="72" font-weight="700">
    Business Analysis
  </text>
</svg>
